<svg width="156" height="50" viewBox="0 0 156 50" fill="none" xmlns="http://www.w3.org/2000/svg">
<path d="M20.1294 26.71H41.4214C42.2452 26.71 42.8455 27.4934 42.6216 28.2881L36.7759 49.0928C36.6245 49.6301 36.1362 50 35.5757 50H14.2837C13.4598 50 12.8603 49.2108 13.0845 48.416L18.9302 27.6113C19.0815 27.074 19.5689 26.7041 20.1294 26.7041V26.71ZM66.6099 26.8047C69.0197 26.8047 71.015 27.6223 72.3433 29.167L70.3091 31.042C69.3114 29.9841 68.1561 29.4971 66.7661 29.4971C64.1042 29.4973 62.2888 31.3165 62.2886 33.874C62.2886 36.4319 64.1042 38.2518 66.7271 38.252C67.5902 38.252 68.3924 38.095 69.1938 37.6641H69.188V33.6562H72.0854V39.2031C70.5779 40.3393 68.5043 40.9433 66.5483 40.9434C62.2439 40.9434 59.0767 37.9936 59.0767 33.874C59.0769 29.7547 62.2495 26.8047 66.6099 26.8047ZM99.8462 27.0459C103.506 27.046 105.792 28.9377 105.792 32.0049C105.792 34.0535 104.755 35.5591 102.973 36.3203L106.044 40.7139V40.7197H102.643L100.002 36.9082H97.0884V40.7197H93.9214V27.0459H99.8462ZM84.4106 27.04L90.5308 40.7139H87.2017L85.9907 37.7812H79.6353L78.4243 40.7139H75.1792L81.2827 27.04H84.4106ZM116.469 27.0342C120.947 27.0342 124.019 29.7323 124.019 33.874C124.019 38.016 120.947 40.7139 116.469 40.7139H110.249V27.0342H116.469ZM146.063 27.04L152.873 35.3408V27.04H155.995V40.7139H153.394L146.567 32.4141V40.7139H143.44V27.04H146.063ZM138.709 27.0342V29.5762H131.513V32.5479H137.869V35.0107H131.513V38.168H138.967V40.709H128.363V27.0342H138.709ZM15.2026 26.7041C16.0265 26.7041 16.626 27.4884 16.4019 28.2832L13.3921 38.9961C13.2407 39.5333 12.7532 39.9023 12.1929 39.9023H1.24658C0.422832 39.9022 -0.176771 39.1189 0.0473633 38.3242L3.05713 27.6113C3.20843 27.0741 3.69598 26.7042 4.25635 26.7041H15.2026ZM113.42 29.6318V38.1055H116.318C119.036 38.1055 120.819 36.4829 120.819 33.8691C120.819 31.2552 119.036 29.6318 116.318 29.6318H113.42ZM80.6548 35.3799H84.9937L82.8237 30.1465L80.6548 35.3799ZM97.0825 29.6152V34.3838H99.6665C101.6 34.3838 102.581 33.5047 102.581 31.999C102.58 30.4936 101.6 29.6152 99.6665 29.6152H97.0825ZM104.15 12.4707C105.831 12.4707 107.345 13.0302 108.371 14.1494L107.597 14.9219C106.656 13.9705 105.501 13.5567 104.184 13.5566C101.399 13.5566 99.3022 15.5996 99.3022 18.3311C99.3023 21.0625 101.399 23.1055 104.184 23.1055C105.501 23.1054 106.656 22.6965 107.597 21.7227L108.371 22.4951C107.351 23.6146 105.832 24.1914 104.133 24.1914C100.778 24.1913 98.2589 21.8534 98.105 18.6387L98.0972 18.3369C98.0972 14.9563 100.67 12.4709 104.15 12.4707ZM115.78 12.46C119.243 12.46 121.833 14.9446 121.833 18.3252C121.833 21.7059 119.277 24.1914 115.78 24.1914C112.283 24.1912 109.71 21.6834 109.71 18.3252C109.711 14.9615 112.316 12.4602 115.78 12.46ZM91.6851 12.5654V13.6182H84.9878V17.7207H90.9565V18.7568H84.9878V23.0439H91.9321V24.0957H83.7661V12.5654H91.6851ZM128.89 12.5654C131.827 12.5656 133.609 14.0493 133.609 16.5176C133.609 18.3254 132.651 19.5957 130.969 20.1387L133.789 24.0908V24.0957H132.455L129.815 20.3906C129.518 20.4242 129.221 20.4414 128.89 20.4414H125.791V24.0957H124.569V12.5654H128.89ZM68.4204 13.6123H64.3618V24.0908H63.1401V13.6123H59.0825V12.5605H68.4204V13.6123ZM71.5806 12.5605V17.6982H78.8052V12.5605H80.0103V24.0908H78.8052V18.7676H71.5806V24.0908H70.3589V12.5605H71.5806ZM141.125 12.5605L146.405 24.0908H145.116L143.731 21.0117H137.297L135.913 24.0908H134.64L139.92 12.5605H141.125ZM149.532 12.5605V23.0381H156V24.0908H148.31V12.5605H149.532ZM33.0649 0C33.8888 0 34.4882 0.78338 34.2642 1.57812L28.4185 22.3828C28.2671 22.9201 27.7797 23.29 27.2192 23.29H5.92725C5.10347 23.29 4.50314 22.5066 4.72705 21.7119L10.5728 0.907227C10.7241 0.369893 11.2125 0 11.7729 0H33.0649ZM46.1069 10.0918C46.9307 10.0918 47.531 10.8752 47.3071 11.6699L44.2974 22.3828C44.146 22.9201 43.6576 23.29 43.0972 23.29H32.1519C31.3281 23.29 30.7278 22.5066 30.9517 21.7119L33.9614 10.999C34.1128 10.4617 34.6011 10.0918 35.1616 10.0918H46.1069ZM115.78 13.5508C112.994 13.551 110.916 15.5772 110.916 18.3252C110.916 21.0733 113.011 23.0994 115.78 23.0996C118.549 23.0996 120.612 21.0734 120.612 18.3252C120.612 15.577 118.565 13.5508 115.78 13.5508ZM137.746 20.0215H143.283L140.514 13.8252L137.746 20.0215ZM125.791 13.6123V19.3945H128.856C131.165 19.3945 132.387 18.3252 132.387 16.5117C132.387 14.6647 131.165 13.6123 128.856 13.6123H125.791Z" fill="url(#paint0_linear_77_151)"/>
<defs>
<linearGradient id="paint0_linear_77_151" x1="47" y1="50" x2="9.5" y2="2.04474e-06" gradientUnits="userSpaceOnUse">
<stop stop-color="#74E4BB"/>
<stop offset="1" stop-color="#042F34"/>
</linearGradient>
</defs>
</svg>
